<svg xmlns="http://www.w3.org/2000/svg" width="51" height="51" fill="none"><path fill="#295EDE" d="M23.933.611C19.27.878 14.92 2.327 11.148 4.878a25.1 25.1 0 0 0-6.74 6.747C2.163 14.96.725 18.888.263 22.915c-.142 1.235-.142 4.16 0 5.378.311 2.666.968 5.12 2.016 7.493l.417.943.266-.143c.435-.222 1.19-.986 1.634-1.653.444-.667 1.003-1.876 1.438-3.12l.285-.8-.178-.756c-.329-1.404-.462-2.444-.515-3.965-.115-3.35.515-6.293 1.962-9.244 1.971-4 4.928-6.97 8.932-8.97 7.45-3.706 16.497-2.204 22.419 3.725 4.252 4.25 6.285 10.125 5.584 16.125l-.133 1.182.453 1.343c.248.729.532 1.67.63 2.08.204.889.24.978.808 1.689.364.462 1.225 1.244 1.643 1.475.177.107 1.038-2.275 1.491-4.089 1.678-6.818.382-14.125-3.56-19.983-2.14-3.182-5.096-5.911-8.488-7.831-2.672-1.52-6.073-2.64-9.172-3.014-1.038-.124-3.382-.222-4.261-.169Z"/><path fill="#295EDE" d="M29.02 13.323c-.249.124-.87 1.067-.87 1.307 0 .204.55.622 1.314.995.923.445 1.456.791 1.678 1.094.169.23.178.302.098.693-.16.765-.64 1.645-1.439 2.658-.923 1.156-.985 1.262-.905 1.689.115.587 1.536 1.911 2.05 1.911.08 0 .347-.107.595-.231.347-.178.498-.213.64-.142.186.08 1.136 1.564 1.59 2.462.478.96 2.725 6.178 2.956 6.845.177.533.24.907.248 1.467.01.693-.017.817-.284 1.35-.24.49-.48.774-1.35 1.583-.577.542-1.118 1.085-1.198 1.209-.133.213-.124.231.364.862.275.347.542.631.586.614.044-.01.604-.24 1.243-.507 2.095-.889 3.507-1.2 5.407-1.2 1.35 0 2.255.133 3.631.533.515.142.96.267.986.267.062 0 .879-1.405.879-1.502 0-.036-.24-.232-.542-.454-.772-.56-2.033-1.92-2.326-2.498-.133-.275-.382-1.022-.55-1.653-.542-2.116-1.297-3.973-3.419-8.427-1.322-2.774-2.14-4.596-2.743-6.09-.222-.56-.231-.648-.24-2.47l-.009-1.903-.257-.169c-.329-.213-.64-.213-1.59.018-1.349.32-3.924.231-5.3-.178-.87-.257-.986-.275-1.243-.133ZM10.757 14.505c-.302.445-.568.862-.595.934-.027.08.284.222 1.056.489.604.204 1.226.453 1.386.55l.302.178-.054.694c-.062.747-.346 1.742-1.056 3.609-.24.631-.418 1.236-.409 1.333.018.107.151.223.382.311.195.071.64.303.977.507.639.382 1.42.631 1.687.534.08-.036.328-.454.55-.925.72-1.565.772-1.565 2.22-.098 1.713 1.76 2.681 3.218 3.587 5.405 1.047 2.533 1.695 4.898 2.521 9.12.346 1.778.373 2.25.187 2.97-.071.266-.125.497-.116.497.01.009.48.24 1.039.525.604.302 1.03.47 1.048.409.017-.054.222-.392.453-.738.577-.89 1.509-1.77 2.983-2.827.683-.498 1.34-.969 1.456-1.058l.222-.151-.16-.578c-.089-.311-.435-1.413-.772-2.453-.915-2.818-1.066-3.485-1.12-5.005-.044-1.138-.026-1.378.143-1.982.106-.383.328-.97.497-1.307.435-.862.417-1.076-.16-1.831-.55-.711-.95-1.014-1.358-1.014-.462 0-.71.134-1.367.756-.338.32-.63.578-.658.578-.08 0-1.713-2.365-2.583-3.734a46.924 46.924 0 0 1-2.744-4.987l-.621-1.297-1.998-.054c-1.1-.035-2.992-.089-4.19-.124l-2.185-.053-.55.817Z"/><path fill="#295EDE" d="M10.81 24.088c-.728 1.147-1.394 2.791-2.584 6.311-.95 2.818-1.43 4.027-1.97 4.943-.658 1.129-1.563 2.116-2.362 2.587l-.418.24.489.773c.275.427.532.764.586.747.053-.018.257-.134.461-.276.746-.498 1.883-.915 3.099-1.138.737-.133 2.584-.178 4.102-.089l.355.018.027-.551.026-.551-.47-.302c-.524-.338-1.19-1.014-1.314-1.351-.045-.125-.063-.33-.045-.463.027-.142.107-.702.178-1.262.16-1.164.568-2.551 1.207-4.16 1.084-2.711 1.607-4.214 1.554-4.436-.053-.187-.266-.329-1.145-.747-1.483-.72-1.51-.72-1.776-.293ZM40.056 39.715c-1.474.276-1.767.391-2.566 1.05-2.637 2.16-5.993 3.662-9.384 4.195-1.261.196-3.623.267-4.848.142-1.42-.15-3.019-.489-4.28-.906-2.228-.747-4.714-2.16-6.534-3.716l-.844-.72-.665-.01c-1.474-.008-2.07.028-2.824.179-.879.186-1.98.613-2.38.933l-.257.213.258.338c.586.774 2.006 2.25 2.938 3.05 5.736 4.95 13.088 7.057 20.457 5.875 6.304-1.022 12.04-4.471 15.919-9.574.355-.462.39-.55.266-.595-1.393-.418-1.988-.525-3.267-.551-.888-.018-1.554.008-1.989.097Z"/></svg>